<svg viewBox="0 0 24 23" fill="none" xmlns="http://www.w3.org/2000/svg">
    <path
        d="M19.2727 20.5909C19.7748 20.5909 20.1818 20.1838 20.1818 19.6818C20.1818 19.1797 19.7748 18.7727 19.2727 18.7727C18.7707 18.7727 18.3636 19.1797 18.3636 19.6818C18.3636 20.1838 18.7707 20.5909 19.2727 20.5909Z"
        stroke="currentColor" stroke-width="3" stroke-linecap="round" stroke-linejoin="round" />
    <path
        d="M9.27249 20.5909C9.77457 20.5909 10.1816 20.1838 10.1816 19.6818C10.1816 19.1797 9.77457 18.7727 9.27249 18.7727C8.77042 18.7727 8.3634 19.1797 8.3634 19.6818C8.3634 20.1838 8.77042 20.5909 9.27249 20.5909Z"
        stroke="currentColor" stroke-width="3" stroke-linecap="round" stroke-linejoin="round" />
    <path
        d="M2 1.5H5.63636L8.07273 13.6727C8.15586 14.0913 8.38355 14.4672 8.71595 14.7348C9.04835 15.0024 9.46427 15.1445 9.89091 15.1364H18.7273C19.1539 15.1445 19.5698 15.0024 19.9022 14.7348C20.2346 14.4672 20.4623 14.0913 20.5455 13.6727L22 6.04545H6.54545"
        stroke="currentColor" stroke-width="3" stroke-linecap="round" stroke-linejoin="round" />
</svg>
